<svg xmlns="http://www.w3.org/2000/svg" width="68" height="68" viewBox="0 0 68 68">
    <g fill="none" fill-rule="nonzero">
        <circle cx="34" cy="34" r="34" fill="#FFF"/>
        <path fill="#000" d="M56.1 29.2c-.4-6.1-5.8-9.4-10.9-9.3-3.4.1-6.2 1.3-8.3 3.7-1.9-2.5-4.7-3.8-8.1-3.8-2.8 0-5.6.9-7.5 2.7l-1.2-2.2h-8.3V48h18.4v-3l5.6 3.3 5.6-3.3v3l14.7.1s.2-15.9 0-18.9zm-2.7 15.9h-9v-5.2l-8.5 5-8.5-5v5.2H14.7V23.2h3.7l2.3 4.1s3.1-4.7 8-4.6c5.9.1 8.1 5.5 8.1 5.5s2.9-5.6 8.5-5.4c5.4.2 8.2 3.3 8.1 7.7v14.6z"/>
    </g>
</svg>
