<svg xmlns="http://www.w3.org/2000/svg" width="18" height="18" viewBox="0 0 18 18">
    <g fill="#FFF" fill-rule="evenodd">
        <path d="M17.25 5.25H.75v-3H3v1.125c0 .207.168.375.375.375h2.25A.375.375 0 0 0 6 3.375V2.25h6v1.125c0 .207.168.375.375.375h2.25A.375.375 0 0 0 15 3.375V2.25h2.25v3zm-16.5 12h16.5V6H.75v11.25zM3.75 3h1.5V.75h-1.5V3zm9 0h1.5V.75h-1.5V3zm4.875-1.5H15V.375A.375.375 0 0 0 14.625 0h-2.25A.375.375 0 0 0 12 .375V1.5H6V.375A.375.375 0 0 0 5.625 0h-2.25A.375.375 0 0 0 3 .375V1.5H.375A.375.375 0 0 0 0 1.875v15.75c0 .207.168.375.375.375h17.25a.375.375 0 0 0 .375-.375V1.875a.375.375 0 0 0-.375-.375z"/>
        <path d="M5.143 14.34h3.086v-2.373H5.143v2.374zm0-3.164h3.086V8.802H5.143v2.374zM9 14.34h3.086v-2.374H9v2.374zm0-3.165h3.086V8.802H9v2.374zm-7.714 3.56a.39.39 0 0 0 .385.396h2.7v1.187a.39.39 0 0 0 .386.395.39.39 0 0 0 .386-.395v-1.187h3.086v1.187a.39.39 0 0 0 .385.395A.39.39 0 0 0 9 16.32v-1.187h3.086v1.187a.39.39 0 0 0 .385.395.39.39 0 0 0 .386-.395v-1.187h3.472a.39.39 0 0 0 .385-.396.39.39 0 0 0-.385-.395h-3.472v-2.374h3.472a.39.39 0 0 0 .385-.396.39.39 0 0 0-.385-.395h-3.472V8.802h3.472a.39.39 0 0 0 .385-.395.39.39 0 0 0-.385-.396h-3.472V6.824a.39.39 0 0 0-.386-.395.39.39 0 0 0-.385.395v1.187H9V6.824a.39.39 0 0 0-.386-.395.39.39 0 0 0-.385.395v1.187H5.143V6.824a.39.39 0 0 0-.386-.395.39.39 0 0 0-.386.395v1.187h-2.7a.39.39 0 0 0-.385.396.39.39 0 0 0 .385.395h2.7v2.374h-2.7a.39.39 0 0 0-.385.395.39.39 0 0 0 .385.396h2.7v2.374h-2.7a.39.39 0 0 0-.385.395z"/>
    </g>
</svg>
