<svg xmlns="http://www.w3.org/2000/svg" width="36" height="27" viewBox="0 0 36 27">
    <g fill="none" fill-rule="evenodd" stroke="#FFF" stroke-linejoin="round">
        <path d="M3.673 5.142l.041-1.47c0-.766.66-1.468 1.428-1.468h1.387c.817 0 1.551.702 1.551 1.469v1.469"/>
        <path d="M28.648 5.142C27.714 3.273 26.87.735 24.975.735H17.63c-1.47 0-2.164 1.414-4.408 4.407h-9.55C1.47 5.142.736 6.14.736 7.673v15.262c0 1.532.734 2.775 3.02 2.775h27.75c2.287 0 3.021-1.243 3.021-2.775V7.673c-.001-1.533-.736-2.531-3.022-2.531h-2.856z"/>
        <circle cx="21.302" cy="14.691" r="8.08"/>
        <circle cx="21.302" cy="14.691" r="4.407"/>
        <circle cx="5.877" cy="10.284" r="2.204"/>
    </g>
</svg>
