<svg xmlns="http://www.w3.org/2000/svg" width="14" height="20" viewBox="0 0 14 20">
    <g fill="#FFF" fill-rule="evenodd">
        <path d="M7 18.816C5.63 16.776.875 9.496.875 6.666.875 3.45 3.623.834 7 .834s6.125 2.617 6.125 5.834c0 2.829-4.755 10.11-6.125 12.149zM7 0C3.14 0 0 2.99 0 6.667c0 3.538 6.364 12.755 6.635 13.146.08.117.218.187.365.187s.284-.07.365-.188C7.636 19.422 14 10.206 14 6.668 14 2.99 10.86 0 7 0z"/>
        <path d="M7 9.143A2.146 2.146 0 0 1 4.857 7c0-1.181.962-2.143 2.143-2.143 1.182 0 2.143.962 2.143 2.143 0 1.181-.961 2.143-2.143 2.143zM7 4C5.346 4 4 5.346 4 7s1.346 3 3 3 3-1.346 3-3-1.346-3-3-3z"/>
    </g>
</svg>
