<svg xmlns="http://www.w3.org/2000/svg" width="20" height="20" viewBox="0 0 20 20">
    <path fill="#000" fill-rule="evenodd" d="M16.514 17.021h1.489v-3.012h-3.011v3.012h1.522zm0-6.023h1.489V8.019h-3.011v2.979h1.522zm0-5.99h1.489V1.996h-3.011v3.012h1.522zm-8.003 5.99h3.011V8.019H8.511v2.979zm0-5.99h3.011V1.996H8.511v3.012zM2.03 17.021h2.979v-3.012H2.03v3.012zm0-6.023h2.979V8.019H2.03v2.979zm0-5.99h2.979V1.996H2.03v3.012zm9.984 12.995v-1.997c0-.589-.153-1.026-.459-1.309a2.277 2.277 0 0 0-1.015-.59c-.349-.108-.523-.141-.523-.098 0-.043-.186-.01-.557.098a2.607 2.607 0 0 0-.982.622c-.305.284-.458.721-.458 1.31V20H0V0h20v20h-7.986v-1.997z"/>
</svg>
