<svg xmlns="http://www.w3.org/2000/svg" width="23" height="32" viewBox="0 0 23 32">
    <g fill="none" fill-rule="nonzero">
        <circle cx="11.437" cy="27.539" r="4.461" fill="#FFF"/>
        <path fill="#000" d="M21.856 15.36a11.11 11.11 0 0 1-2.016 3.38l-.102.102-.103.102a307.52 307.52 0 0 1-1.862 2.131l-2.234 2.522c-.764.853-1.508 1.706-2.233 2.56a58.982 58.982 0 0 1-1.87 2.112c-.52-.585-1.132-1.295-1.836-2.131a99.54 99.54 0 0 0-2.234-2.56L5.12 21.075a207.591 207.591 0 0 1-1.888-2.131l-.102-.102-.103-.103a11.11 11.11 0 0 1-2.01-3.379 10.714 10.714 0 0 1-.735-3.923v-.122A10.88 10.88 0 0 1 1.837 5.76 11.22 11.22 0 0 1 5.9 1.754 10.835 10.835 0 0 1 11.437.282a10.835 10.835 0 0 1 5.536 1.478 11.22 11.22 0 0 1 4.064 4 11.482 11.482 0 0 1 1.561 5.536v.122a10.714 10.714 0 0 1-.742 3.942z"/>
        <path fill="#FFF" d="M11.437 28.666l-.205-.23c-.52-.577-1.143-1.283-1.869-2.12-.725-.835-1.47-1.689-2.233-2.56l-2.24-2.495c-.726-.82-1.349-1.532-1.87-2.138l-.191-.192A11.45 11.45 0 0 1 .755 15.47 11.034 11.034 0 0 1 0 11.437v-.122C.017 9.312.57 7.35 1.6 5.632a11.52 11.52 0 0 1 4.16-4.115A11.162 11.162 0 0 1 11.437 0c1.994-.01 3.954.513 5.677 1.517a11.52 11.52 0 0 1 4.16 4.115 11.814 11.814 0 0 1 1.6 5.67v.128a11.04 11.04 0 0 1-.756 4.039 11.443 11.443 0 0 1-2.06 3.443l-.218.224c-.506.589-1.133 1.28-1.856 2.118l-2.24 2.528c-.764.854-1.508 1.707-2.234 2.56a64.026 64.026 0 0 1-1.868 2.119l-.205.205zm0-28.11a10.605 10.605 0 0 0-5.395 1.44c-1.636.946-3 2.298-3.962 3.924a10.682 10.682 0 0 0-1.523 5.395v.122c-.004 1.313.239 2.616.717 3.84a10.88 10.88 0 0 0 1.964 3.283l.192.192c.532.64 1.152 1.325 1.876 2.144l2.233 2.522c.768.853 1.515 1.706 2.24 2.56.632.725 1.184 1.352 1.658 1.881.473-.529 1.026-1.156 1.657-1.881.726-.854 1.472-1.707 2.24-2.56l2.234-2.522c.725-.82 1.346-1.53 1.862-2.131l.218-.205a10.88 10.88 0 0 0 1.92-3.264c.478-1.224.72-2.526.717-3.84v-.122a11.251 11.251 0 0 0-1.523-5.395 10.989 10.989 0 0 0-3.93-3.942 10.605 10.605 0 0 0-5.395-1.44z"/>
        <path fill="#FFF" d="M19.616 16.154a9.414 9.414 0 0 0 1.229-4.717 9.491 9.491 0 0 0-1.229-4.755 9.562 9.562 0 0 0-3.443-3.405 9.178 9.178 0 0 0-4.717-1.28 9.037 9.037 0 0 0-4.717 1.28A9.46 9.46 0 0 0 3.296 6.72a9.037 9.037 0 0 0-1.28 4.717 9.178 9.178 0 0 0 1.28 4.717 9.562 9.562 0 0 0 3.405 3.443 9.491 9.491 0 0 0 4.755 1.229 9.3 9.3 0 0 0 8.16-4.679v.007z"/>
        <path fill="#000" d="M14.528 25.158c-.256.288-.506.576-.749.858a2.79 2.79 0 1 1-4.685 0c-.236-.282-.492-.57-.748-.858a3.84 3.84 0 0 0-.813 2.362 3.914 3.914 0 1 0 7.827 0 3.84 3.84 0 0 0-.832-2.362zM8.173 12.192v.41c.004.673-.051 1.346-.167 2.01a13.92 13.92 0 0 0-1.804-.206c-.273 0-.67.028-1.19.084a7.245 7.245 0 0 1-.449-1.28v-.41a12.762 12.762 0 0 0-.121-1.805 7.078 7.078 0 0 1 1.721-.205 6.848 6.848 0 0 1 1.888.244 1.28 1.28 0 0 0 0 .204 1.28 1.28 0 0 1 0 .205l.083.371.039.378zM6.451 7.11H5.76a6.944 6.944 0 0 1 1.766-1.6 12.8 12.8 0 0 0-.083 1.684c-.074.007-.15.007-.224 0h-.185l-.372-.039-.21-.045zM7.68 7.27l.883.167c.316.055.583.11.8.166.218.056.51.103.877.141.371.068.666.13.883.186.003.11.016.219.039.326.02.11.049.22.083.326.077.56.188 1.113.333 1.658l.083.576c.025.192.053.356.083.493v.211c-.86-.066-1.716-.19-2.56-.371a6.38 6.38 0 0 0-.595-.141 2.707 2.707 0 0 0-.512-.064 2.835 2.835 0 0 1-.083-.326 1.766 1.766 0 0 1-.039-.327 30.46 30.46 0 0 1-.371-2.048 7.854 7.854 0 0 1-.083-.429 2.97 2.97 0 0 1-.039-.428v-.154a.454.454 0 0 1 .218.038zM11.13 15.168H11.52c-.026.162-.107.589-.243 1.28a10.24 10.24 0 0 0-.205 2.01 6.765 6.765 0 0 1-3.526-1.146c.044-.442.117-.88.217-1.312.026-.218.066-.45.122-.698.055-.247.096-.46.121-.64.001-.031.015-.062.039-.083l.083.039 1.843.326a.602.602 0 0 1 .224.038.506.506 0 0 0 .186.039l.493.083.256.064zM12.602 7.885h-.576a6.63 6.63 0 0 1-.864-.039 12.07 12.07 0 0 1-.084-1.145c.028-.783.11-1.564.244-2.336h.038c1.201 0 2.384.297 3.443.864-.047.21-.075.424-.083.64v1.766l-.78.122a7.392 7.392 0 0 0-.782.166l-.556-.038zM15.437 12.09v.512c.01.711-.06 1.421-.205 2.118a9.434 9.434 0 0 1-1.517.288c-.555.1-1.118.156-1.683.166a1.395 1.395 0 0 1-.448-.038c.055-.299.102-.612.14-.94l.103-.82v-.371-.371a8.96 8.96 0 0 0-.083-1.07c.604.003 1.207-.038 1.805-.12l.94-.186c.33-.069.602-.116.82-.141.034.077.056.159.064.243.004.081.004.162 0 .243l.064.487zM14.778 7.603c.74-.187 1.493-.323 2.252-.41a7.117 7.117 0 0 1 1.35 3.572c-1.02-.016-2.039.094-3.033.326a7.744 7.744 0 0 0-.121-.819 12.885 12.885 0 0 1-.122-.672 269.95 269.95 0 0 1-.326-1.997zM15.104 15.642l.083-.448c.03-.163.058-.3.083-.41a16.166 16.166 0 0 1 2.503-.326 6.752 6.752 0 0 1-2.995 3.116 8.73 8.73 0 0 1 .166-1.024c.081-.367.134-.67.16-.908z"/>
    </g>
</svg>
