<svg xmlns="http://www.w3.org/2000/svg" width="28" height="28" viewBox="0 0 28 28">
    <g fill="none" fill-rule="evenodd">
        <circle cx="14" cy="14" r="14" fill="#A5CC00"/>
        <path fill="#FFF" d="M12.463 7.128c.043-.044.107-.1.192-.167.086-.066.235-.11.448-.133.214-.022.427.078.64.3l.225 5.837-1.89.634v8.306c0 .356-.117.656-.351.9a1.152 1.152 0 0 1-.865.367c-.341 0-.63-.122-.864-.367a1.251 1.251 0 0 1-.353-.9v-8.306l-1.92-.667.255-5.804c.043-.067.102-.139.176-.217.075-.078.225-.128.449-.15.224-.022.432.1.624.367v4.436l.96.234v-4.67c.214-.245.433-.367.657-.367.224 0 .39.067.496.2l.192.167v4.703l.93-.267V7.128zm6.148-.3c.555-.134.966-.061 1.233.217.266.278.41.539.432.784v14.043c0 .355-.118.656-.352.9a1.152 1.152 0 0 1-.865.367 1.17 1.17 0 0 1-.624-.167 1.36 1.36 0 0 1-.449-.45 1.207 1.207 0 0 1-.176-.65v-6.705l-1.505-.567c-.192-1.379-.245-2.54-.16-3.486.086-.945.262-1.695.529-2.251.266-.556.544-.984.832-1.285.288-.3.54-.505.753-.617l.352-.133z"/>
    </g>
</svg>
