<svg xmlns="http://www.w3.org/2000/svg" width="28" height="28" viewBox="0 0 28 28">
    <g fill="none" fill-rule="evenodd">
        <circle cx="14" cy="14" r="14" fill="#A5CC00"/>
        <path fill="#FFF" d="M21.323 12.587v1.557c0 1.17-.288 2.05-.865 2.644-.477.461-1.136.79-1.977.988a7.162 7.162 0 0 1-1.532.173v.519h.618c.181 0 .338.066.47.198a.641.641 0 0 1 .197.47v1.556a.592.592 0 0 1-.197.47.641.641 0 0 1-.47.197H9.042a.592.592 0 0 1-.469-.198.634.634 0 0 1-.173-.47v-1.556a.69.69 0 0 1 .173-.47.592.592 0 0 1 .47-.197h.617V7.176c0-.181.066-.33.198-.445a.641.641 0 0 1 .47-.198h5.954c.182 0 .338.066.47.198.132.132.197.28.197.445v9.859c.429 0 .874-.058 1.335-.173.708-.165 1.21-.42 1.507-.766.198-.165.346-.42.445-.766.115-.346.173-.741.173-1.186 0-.84-.173-1.598-.52-2.273a108.305 108.305 0 0 0-1.26.865 21.298 21.298 0 0 0-.481-.952 36.535 36.535 0 0 0-.507-.927l.507-.889c.206-.362.366-.65.482-.865-.1-.247-.227-.572-.383-.976-.157-.403-.284-.729-.383-.976.082-.05.185-.12.309-.21.123-.09.226-.16.308-.21.28.577.651 1.343 1.112 2.298.462.955.824 1.721 1.088 2.298l-.025.025c.082.164.193.374.333.63l.334.605zm-5.51-4.818a.564.564 0 0 0-.445-.198h-4.126a.615.615 0 0 0-.445.198.564.564 0 0 0-.198.445v2.792c0 .164.066.313.198.445.132.115.28.172.445.172h4.126c.181 0 .33-.057.445-.172a.615.615 0 0 0 .198-.445V8.214a.564.564 0 0 0-.198-.445zm2.965 2.594a2.464 2.464 0 0 1-.148.297c-.066.115-.124.214-.173.296.066.083.144.202.235.359.09.156.16.284.21.383.049-.033.115-.075.197-.124.083-.05.148-.09.198-.123a21.976 21.976 0 0 1-.26-.544c-.107-.23-.193-.412-.259-.544z"/>
    </g>
</svg>
