<svg xmlns="http://www.w3.org/2000/svg" width="17" height="20" viewBox="0 0 17 20">
    <path fill="#000" fill-rule="evenodd" d="M10.482 4.006a4.222 4.222 0 0 0-2.259-.632c-.823 0-1.586.211-2.289.632a4.38 4.38 0 0 0-1.657 1.657 4.373 4.373 0 0 0-.632 2.289c0 .823.211 1.576.632 2.259a4.38 4.38 0 0 0 1.657 1.657 4.376 4.376 0 0 0 2.289.632c.823 0 1.576-.211 2.259-.632a4.447 4.447 0 0 0 1.657-1.627 4.367 4.367 0 0 0 .632-2.289c0-.823-.21-1.587-.632-2.289a4.38 4.38 0 0 0-1.657-1.657m-7.801.844a5.949 5.949 0 0 0-.844 3.102c0 1.124.282 2.169.844 3.133a6.03 6.03 0 0 0 2.289 2.258c.984.563 2.068.844 3.253.844a6.159 6.159 0 0 0 3.163-.844 5.817 5.817 0 0 0 2.289-2.229 6.105 6.105 0 0 0 .873-3.162 5.948 5.948 0 0 0-.843-3.102 5.969 5.969 0 0 0-2.319-2.26 6.005 6.005 0 0 0-3.163-.873A6.216 6.216 0 0 0 5 2.59a5.969 5.969 0 0 0-2.319 2.26m12.56-.934a7.976 7.976 0 0 1 1.145 3.945v.091a7.54 7.54 0 0 1-.543 2.831 6.848 6.848 0 0 1-1.506 2.38c-.02.04-.04.07-.06.09l-.06.061c-.381.421-.839.928-1.37 1.521-.532.592-1.08 1.199-1.642 1.822-.562.622-1.104 1.23-1.626 1.822-.523.592-.974 1.099-1.356 1.521-.382-.422-.838-.929-1.37-1.521-.533-.592-1.085-1.2-1.657-1.822a231.4 231.4 0 0 1-1.657-1.822c-.532-.593-.989-1.1-1.37-1.521a.561.561 0 0 1-.061-.076.492.492 0 0 0-.06-.075 8.376 8.376 0 0 1-1.505-2.41A7.463 7.463 0 0 1 0 7.952v-.091a7.585 7.585 0 0 1 1.145-3.945 8.078 8.078 0 0 1 2.982-2.892C5.372.341 6.737 0 8.223 0c1.466 0 2.811.341 4.036 1.024a7.79 7.79 0 0 1 2.982 2.892"/>
</svg>
