<svg xmlns="http://www.w3.org/2000/svg" xmlns:xlink="http://www.w3.org/1999/xlink" width="90" height="17" viewBox="0 0 90 17">
    <defs>
        <path id="a" d="M0 22.664h96.242V0H0z"/>
    </defs>
    <g fill="none" fill-rule="evenodd" transform="translate(-5 -4)">
        <path fill="#FFF" d="M10.002 9.568c-1.054 0-1.906 1.236-1.906 2.751 0 .474.086.907.232 1.296v.015c.014.036.03.067.044.101.023.055.047.109.073.16.007.014.008.03.014.044.056.112.123.222.19.32.084.126.177.235.276.335.099.1.21.19.32.262.003.002.012-.001.015 0 .113.072.226.122.349.16.129.04.256.073.393.073.79 0 1.472-.701 1.761-1.688v-.015c.047-.16.076-.321.102-.495v-.014c.025-.174.043-.355.044-.539v-.015c0-.184-.02-.364-.044-.538v-.014a3.819 3.819 0 0 0-.102-.496c-.038-.133-.094-.256-.146-.378-.011-.027-.016-.06-.029-.087l-.014-.03a2.639 2.639 0 0 0-.219-.378c-.003-.006-.01-.009-.014-.015l-.03-.043a2.29 2.29 0 0 0-.247-.277c-.306-.3-.663-.495-1.062-.495zm.684-2.212c2.147 0 3.886 2.24 3.886 5.007 0 2.768-1.739 5.008-3.886 5.008-.887 0-1.704-.39-2.358-1.034v3.755h-.014v.088h-2.75V7.734h2.764v.655c.654-.644 1.471-1.033 2.358-1.033zM15.357 7.705v9.331h2.78v-.102h.015v-5.75c.371-.559 1.311-1.007 2.532-1.12.053-.005.107.002.16 0V7.704h-.466a5.279 5.279 0 0 0-.873.204c-.01.003-.02.011-.029.014l-.684.35-.19.102-.45.233v-.903h-2.795z"/>
        <mask id="b" fill="#fff">
            <use xlink:href="#a"/>
        </mask>
        <path fill="#FFF" d="M21.743 17.036h2.78V7.802h-2.78zM30.07 7.443c-2.627 0-4.744 2.204-4.744 4.935 0 2.73 2.117 4.949 4.744 4.949 1.2 0 2.292-.474 3.129-1.238l-1.324-1.921c-.395.64-.987 1.063-1.66 1.063-1.192 0-2.168-1.284-2.168-2.868 0-1.584.976-2.867 2.169-2.867.694 0 1.309.444 1.702 1.12l1.18-2.052a4.638 4.638 0 0 0-3.028-1.12M57.27 7.618c-.91 0-1.741.312-2.329.8v-.611h-2.78v9.229h2.78V10.85c.275-.57.796-.961 1.397-.961.59 0 1.1.378 1.383.931v6.318h2.78v-6.376a8.689 8.689 0 0 0 0-.422c.002-.035 0-.067 0-.102 0-.085-.005-.164-.015-.248-.002-.01 0-.02 0-.029-.173-1.31-1.547-2.343-3.216-2.343" mask="url(#b)"/>
        <path fill="#FFF" d="M37.65 9.307c.068-.009.149 0 .218 0 .984 0 1.777.819 1.95 1.907H35.89c.164-1.014.87-1.802 1.761-1.907m.146-2.024c-1.848 0-3.439 1.111-4.22 2.732-.013.034-.032.066-.044.1a7.709 7.709 0 0 0-.408 2.501 8.004 8.004 0 0 0 .305 1.865 5.175 5.175 0 0 0 1.426 2.01l.045.028a4.986 4.986 0 0 0 2.852.882c2.113 0 3.906-1.256 4.468-2.964l-1.892-.794c-.417.956-1.233 1.604-2.183 1.604-1.05 0-1.925-.801-2.285-1.923-.012-.039-.032-.075-.043-.115v-.058c-.025-.095-.057-.19-.073-.289v-.014h6.738a9.935 9.935 0 0 0-.146-1.937l-.029-.116c-.597-2.032-2.38-3.512-4.511-3.512M43.403 17.036h2.78v-13h-2.78zM47.83 17.036h2.78V7.802h-2.78zM65.704 9.306c.067-.008.148 0 .218 0 .984 0 1.777.82 1.95 1.908h-3.93c.165-1.014.871-1.802 1.762-1.908m.145-2.023c-1.847 0-3.438 1.11-4.22 2.731-.012.035-.032.067-.044.102a7.703 7.703 0 0 0-.407 2.5 8.052 8.052 0 0 0 .305 1.865l.073.173c.31.707.77 1.329 1.354 1.836.013.01.03.019.043.029a4.986 4.986 0 0 0 2.853.881c2.112 0 3.906-1.255 4.467-2.963l-1.892-.795c-.417.956-1.233 1.605-2.182 1.605-1.05 0-1.925-.802-2.285-1.923-.013-.039-.033-.076-.044-.115v-.058c-.024-.095-.056-.19-.073-.29v-.014H70.535a9.932 9.932 0 0 0-.145-1.936l-.03-.116c-.597-2.032-2.378-3.512-4.51-3.512M73.03 16.232a1.06 1.06 0 1 1-2.122 0 1.06 1.06 0 0 1 2.122 0M76.286 11.905a2.72 2.72 0 0 0-2.734 2.714 2.727 2.727 0 0 0 2.734 2.723c.691 0 1.32-.261 1.803-.681l-.763-1.057c-.228.352-.568.585-.956.585-.687 0-1.25-.706-1.25-1.578 0-.87.563-1.576 1.25-1.576.4 0 .754.244.981.616l.68-1.129a2.748 2.748 0 0 0-1.745-.617M80.99 13.04c.679 0 1.237.684 1.237 1.523 0 .838-.558 1.523-1.236 1.523-.678 0-1.223-.685-1.223-1.523 0-.839.545-1.524 1.223-1.524m.029-1.24c-1.554 0-2.824 1.23-2.824 2.764 0 1.534 1.27 2.778 2.824 2.778 1.553 0 2.808-1.244 2.808-2.778s-1.255-2.765-2.808-2.765M87.321 11.898c-.5 0-.955.17-1.28.436v-.16h-1.587v4.905h1.586v-3.551c.11-.299.346-.51.626-.51.282 0 .52.209.626.51.001.004-.002.01 0 .015v3.536h1.586v-3.581c.115-.281.34-.48.611-.48.277 0 .518.203.626.495v3.552h1.586v-4.411c-.298-.448-.876-.756-1.557-.756-.581 0-1.098.222-1.426.567-.321-.342-.818-.567-1.397-.567M24.475 5.61a1.39 1.39 0 1 1-2.78 0 1.39 1.39 0 0 1 2.78 0M50.561 5.61a1.39 1.39 0 1 1-2.78.001 1.39 1.39 0 0 1 2.78 0M93.154 10.206a1.193 1.193 0 1 1-.001 2.386 1.193 1.193 0 0 1 0-2.386m.007-.204a1.397 1.397 0 1 0-.001 2.793 1.397 1.397 0 0 0 0-2.793" mask="url(#b)"/>
        <path fill="#FFF" d="M92.845 10.924h.56a.258.258 0 0 1 .005.457h-.565v-.457zm-.147-.156v1.252h.147v-.489h.538l.128.124v.368h.147v-.432l-.14-.136a.368.368 0 0 0 .189-.328c0-.18-.12-.33-.28-.36H92.698z" mask="url(#b)"/>
    </g>
</svg>
