<svg xmlns="http://www.w3.org/2000/svg" width="28" height="28" viewBox="0 0 28 28">
    <g fill="none" fill-rule="evenodd">
        <circle cx="14" cy="14" r="14" fill="#A5CC00"/>
        <path fill="#FFF" fill-rule="nonzero" d="M6.462 14.416v-6.44c0-.836.678-1.514 1.514-1.514h6.44c.402 0 .787.16 1.07.443l6.686 6.685c.591.592.591 1.55 0 2.142l-6.44 6.44a1.514 1.514 0 0 1-2.142 0l-6.685-6.685a1.514 1.514 0 0 1-.443-1.071zm3.533-5.935a1.514 1.514 0 1 0 0 3.029 1.514 1.514 0 0 0 0-3.03z"/>
    </g>
</svg>
