<svg xmlns="http://www.w3.org/2000/svg" width="23" height="32" viewBox="0 0 23 32">
    <g fill="none" fill-rule="nonzero">
        <circle cx="11.437" cy="27.539" r="4.461" fill="#FFF"/>
        <path fill="#000" d="M21.856 15.36a11.11 11.11 0 0 1-2.016 3.38l-.102.102-.103.102a307.52 307.52 0 0 1-1.862 2.131l-2.234 2.522c-.764.853-1.508 1.706-2.233 2.56a58.982 58.982 0 0 1-1.87 2.112c-.52-.585-1.132-1.295-1.836-2.131a99.54 99.54 0 0 0-2.234-2.56L5.12 21.075a207.591 207.591 0 0 1-1.888-2.131l-.102-.102-.103-.103a11.11 11.11 0 0 1-2.01-3.379 10.714 10.714 0 0 1-.735-3.923v-.122A10.88 10.88 0 0 1 1.837 5.76 11.22 11.22 0 0 1 5.9 1.754 10.835 10.835 0 0 1 11.437.282a10.835 10.835 0 0 1 5.536 1.478 11.22 11.22 0 0 1 4.064 4 11.482 11.482 0 0 1 1.561 5.536v.122a10.714 10.714 0 0 1-.742 3.942z"/>
        <path fill="#FFF" d="M11.437 28.666l-.205-.23c-.52-.577-1.143-1.283-1.869-2.12-.725-.835-1.47-1.689-2.233-2.56l-2.24-2.495c-.726-.82-1.349-1.532-1.87-2.138l-.191-.192A11.45 11.45 0 0 1 .755 15.47 11.034 11.034 0 0 1 0 11.437v-.122C.017 9.312.57 7.35 1.6 5.632a11.52 11.52 0 0 1 4.16-4.115A11.162 11.162 0 0 1 11.437 0c1.994-.01 3.954.513 5.677 1.517a11.52 11.52 0 0 1 4.16 4.115 11.814 11.814 0 0 1 1.6 5.67v.128a11.04 11.04 0 0 1-.756 4.039 11.443 11.443 0 0 1-2.06 3.443l-.218.224c-.506.589-1.133 1.28-1.856 2.118l-2.24 2.528c-.764.854-1.508 1.707-2.234 2.56a64.026 64.026 0 0 1-1.868 2.119l-.205.205zm0-28.11a10.605 10.605 0 0 0-5.395 1.44c-1.636.946-3 2.298-3.962 3.924a10.682 10.682 0 0 0-1.523 5.395v.122c-.004 1.313.239 2.616.717 3.84a10.88 10.88 0 0 0 1.964 3.283l.192.192c.532.64 1.152 1.325 1.876 2.144l2.233 2.522c.768.853 1.515 1.706 2.24 2.56.632.725 1.184 1.352 1.658 1.881.473-.529 1.026-1.156 1.657-1.881.726-.854 1.472-1.707 2.24-2.56l2.234-2.522c.725-.82 1.346-1.53 1.862-2.131l.218-.205a10.88 10.88 0 0 0 1.92-3.264c.478-1.224.72-2.526.717-3.84v-.122a11.251 11.251 0 0 0-1.523-5.395 10.989 10.989 0 0 0-3.93-3.942 10.605 10.605 0 0 0-5.395-1.44z"/>
        <path fill="#FFF" d="M19.616 16.154a9.414 9.414 0 0 0 1.229-4.717 9.491 9.491 0 0 0-1.229-4.755 9.562 9.562 0 0 0-3.443-3.405 9.178 9.178 0 0 0-4.717-1.28 9.037 9.037 0 0 0-4.717 1.28A9.46 9.46 0 0 0 3.296 6.72a9.037 9.037 0 0 0-1.28 4.717 9.178 9.178 0 0 0 1.28 4.717 9.562 9.562 0 0 0 3.405 3.443 9.491 9.491 0 0 0 4.755 1.229 9.3 9.3 0 0 0 8.16-4.679v.007z"/>
        <path fill="#A2CE27" d="M16.39 16.39a7.04 7.04 0 0 1-9.945 0l9.945-9.945a7.04 7.04 0 0 1 0 9.945z"/>
        <path fill="#BCD810" d="M6.445 16.39a7.04 7.04 0 0 1 9.945-9.945L6.445 16.39z"/>
        <path fill="#000" d="M14.528 25.158c-.256.288-.506.576-.749.858a2.79 2.79 0 1 1-4.685 0c-.236-.282-.492-.57-.748-.858a3.84 3.84 0 0 0-.813 2.362 3.914 3.914 0 1 0 7.827 0 3.84 3.84 0 0 0-.832-2.362z"/>
    </g>
</svg>
