<svg xmlns="http://www.w3.org/2000/svg" width="36" height="36" viewBox="0 0 36 36">
    <g fill="none" fill-rule="evenodd">
        <circle cx="17.86" cy="17.86" r="17.86" fill="#868686"/>
        <path fill="#FFF" d="M27.238 20.988c.309-.016.57.082.783.295.213.21.326.463.343.758.016.294-.09.555-.318.783l-6.905 7.292-6.953-7.292a1.164 1.164 0 0 1-.295-.783c0-.295.106-.547.32-.758a.98.98 0 0 1 .783-.295c.31.017.562.138.759.368l4.308 4.502v-8.516c0-.294.106-.547.32-.758a1.03 1.03 0 0 1 .758-.32c.294 0 .547.107.758.32.213.211.32.464.32.758v8.516l4.26-4.502c.194-.23.45-.35.759-.368zm-11.534-2.96c0 .195-.048.375-.146.538a1.072 1.072 0 0 1-.416.39c-.18.099-.367.149-.564.149-.292 0-.545-.107-.758-.32a1.035 1.035 0 0 1-.318-.758V9.511l-4.26 4.502c-.196.23-.45.351-.76.368a.985.985 0 0 1-.784-.295 1.13 1.13 0 0 1-.343-.758.995.995 0 0 1 .32-.783l6.903-7.292 6.956 7.292c.194.228.292.489.292.783a.962.962 0 0 1-.317.735 1.09 1.09 0 0 1-.759.293c-.328 0-.589-.113-.783-.343l-4.263-4.502v8.516z"/>
    </g>
</svg>
