<svg xmlns="http://www.w3.org/2000/svg" width="28" height="28" viewBox="0 0 28 28">
    <g fill="none" fill-rule="evenodd">
        <circle cx="14" cy="14" r="14" fill="#A5CC00"/>
        <path fill="#FFF" d="M21.256 9.422c.212 0 .39.08.531.242a.905.905 0 0 1 .213.62c0 .233-.07.43-.213.592a.716.716 0 0 1-.531.216h-.027v5.119c0 .143-.044.323-.133.539-.088.215-.292.323-.611.323h-.77a.431.431 0 0 1-.107-.014.359.359 0 0 0-.08-.013c.124-.251.186-.52.186-.808 0-.467-.141-.862-.425-1.186-.283-.341-.638-.512-1.063-.512l-.518-1.805-.465-1.616H9.827v-.027h-.026a.678.678 0 0 1-.532-.243.867.867 0 0 1-.213-.592c0-.234.071-.431.213-.593a.678.678 0 0 1 .532-.242h.505c.141-.432.319-1.002.531-1.711.213-.71.381-1.28.505-1.711h8.372c.124.431.293 1.001.505 1.71.213.71.39 1.28.532 1.712h.505zm-9.914.835h8.372a56.234 56.234 0 0 1-.385-1.711c-.15-.71-.28-1.27-.385-1.684h-6.831c-.106.413-.235.974-.385 1.684-.151.71-.28 1.28-.386 1.71zm6.857 5.119c.213 0 .39.08.532.242a.972.972 0 0 1 0 1.212.678.678 0 0 1-.532.243h-.026v5.092c0 .144-.045.314-.133.512-.089.215-.292.323-.611.323h-.771c-.301 0-.505-.108-.611-.323a1.29 1.29 0 0 1-.133-.512v-.835H9.056v.835c0 .144-.044.314-.132.512-.089.215-.302.323-.638.323h-.744c-.32 0-.523-.108-.612-.323-.106-.198-.16-.368-.16-.512v-5.092h-.026a.732.732 0 0 1-.531-.243.972.972 0 0 1-.213-.62c0-.233.07-.43.213-.592a.732.732 0 0 1 .531-.242h.505c.142-.431.32-1.002.532-1.711.212-.71.38-1.28.505-1.711h8.372c.124.431.297 1.001.518 1.71.222.71.394 1.28.518 1.712h.505zm.24-3.18a.906.906 0 0 0-.24.62c0 .234.08.431.24.593a.678.678 0 0 0 .531.242c.195 0 .372-.08.532-.242a.867.867 0 0 0 .212-.593c0-.233-.07-.44-.212-.62a.732.732 0 0 0-.532-.242c-.213 0-.39.08-.531.243zM8.286 16.212h8.372c-.089-.431-.208-.997-.359-1.698-.15-.7-.28-1.266-.385-1.697H9.056c-.088.431-.212.997-.372 1.697-.16.7-.292 1.267-.398 1.698zm.239 1.966a.812.812 0 0 0-.24.593c0 .252.08.45.24.593.142.162.31.242.505.242a.76.76 0 0 0 .558-.242c.142-.144.213-.341.213-.593a.867.867 0 0 0-.213-.593.76.76 0 0 0-.558-.242.651.651 0 0 0-.505.242zm2.286 0a.812.812 0 0 0-.24.593c0 .252.08.45.24.593a.678.678 0 0 0 .531.242v.027h2.286v-.027c.213 0 .39-.08.531-.242.16-.144.24-.341.24-.593a.812.812 0 0 0-.24-.593.678.678 0 0 0-.531-.242h-2.312a.651.651 0 0 0-.505.242zm4.571 0a.867.867 0 0 0-.213.593c0 .252.071.45.213.593a.678.678 0 0 0 .532.242c.212 0 .39-.08.531-.242.142-.144.213-.341.213-.593a.867.867 0 0 0-.213-.593.678.678 0 0 0-.531-.242c-.213 0-.39.08-.532.242z"/>
    </g>
</svg>
