<svg version="1.1" viewBox="0.0 0.0 621.8162729658793 605.0787401574803" fill="none" stroke="none" stroke-linecap="square" stroke-miterlimit="10" xmlns:xlink="http://www.w3.org/1999/xlink" xmlns="http://www.w3.org/2000/svg"><clipPath id="p.0"><path d="m0 0l621.8163 0l0 605.07874l-621.8163 0l0 -605.07874z" clip-rule="nonzero"/></clipPath><g clip-path="url(#p.0)"><path fill="#000000" fill-opacity="0.0" d="m0 0l621.8163 0l0 605.07874l-621.8163 0z" fill-rule="evenodd"/><path fill="#666666" d="m168.64305 300.22308l0 0c0 -79.52899 64.47099 -143.99998 143.99998 -143.99998l0 0c38.191193 0 74.818146 15.171387 101.823395 42.17662c27.005219 27.005234 42.176605 63.632202 42.176605 101.823364l0 0c0 79.52902 -64.47098 144.0 -144.0 144.0l0 0c-79.52899 0 -143.99998 -64.47098 -143.99998 -144.0z" fill-rule="evenodd"/><path stroke="#434343" stroke-width="24.0" stroke-linejoin="round" stroke-linecap="butt" stroke-dasharray="192.0,72.0" d="m168.64305 300.22308l0 0c0 -79.52899 64.47099 -143.99998 143.99998 -143.99998l0 0c38.191193 0 74.818146 15.171387 101.823395 42.17662c27.005219 27.005234 42.176605 63.632202 42.176605 101.823364l0 0c0 79.52902 -64.47098 144.0 -144.0 144.0l0 0c-79.52899 0 -143.99998 -64.47098 -143.99998 -144.0z" fill-rule="evenodd"/><path fill="#666666" d="m292.48557 23.309845l0 0c0 -3.7109623 3.0083313 -6.7192936 6.7192993 -6.7192936l26.876373 0l0 0c1.782074 0 3.49115 0.7079239 4.751251 1.9680347c1.2601013 1.2601128 1.9680481 2.9691925 1.9680481 4.751259l0 88.1992c0 3.710968 -3.0083313 6.7192993 -6.7192993 6.7192993l-26.876373 0c-3.710968 0 -6.7192993 -3.0083313 -6.7192993 -6.7192993z" fill-rule="evenodd"/><path stroke="#666666" stroke-width="12.0" stroke-linejoin="round" stroke-linecap="butt" d="m292.48557 23.309845l0 0c0 -3.7109623 3.0083313 -6.7192936 6.7192993 -6.7192936l26.876373 0l0 0c1.782074 0 3.49115 0.7079239 4.751251 1.9680347c1.2601013 1.2601128 1.9680481 2.9691925 1.9680481 4.751259l0 88.1992c0 3.710968 -3.0083313 6.7192993 -6.7192993 6.7192993l-26.876373 0c-3.710968 0 -6.7192993 -3.0083313 -6.7192993 -6.7192993z" fill-rule="evenodd"/><path fill="#666666" d="m597.8634 280.0656l0 0c3.7109375 0 6.7192993 3.0083313 6.7192993 6.7192993l0 26.876373l0 0c0 1.782074 -0.7079468 3.49115 -1.9680786 4.751251c-1.2600708 1.2601318 -2.9691772 1.9680481 -4.7512207 1.9680481l-88.19922 0c-3.710968 0 -6.7192993 -3.0083313 -6.7192993 -6.7192993l0 -26.876373c0 -3.710968 3.0083313 -6.7192993 6.7192993 -6.7192993z" fill-rule="evenodd"/><path stroke="#666666" stroke-width="12.0" stroke-linejoin="round" stroke-linecap="butt" d="m597.8634 280.0656l0 0c3.7109375 0 6.7192993 3.0083313 6.7192993 6.7192993l0 26.876373l0 0c0 1.782074 -0.7079468 3.49115 -1.9680786 4.751251c-1.2600708 1.2601318 -2.9691772 1.9680481 -4.7512207 1.9680481l-88.19922 0c-3.710968 0 -6.7192993 -3.0083313 -6.7192993 -6.7192993l0 -26.876373c0 -3.710968 3.0083313 -6.7192993 6.7192993 -6.7192993z" fill-rule="evenodd"/><path fill="#666666" d="m109.01036 280.0643l0 0c3.710968 0 6.7192993 3.0083313 6.7192993 6.7192993l0 26.876373l0 0c0 1.782074 -0.7079239 3.49115 -1.9680405 4.751251c-1.260109 1.2601318 -2.9691849 1.9680481 -4.751259 1.9680481l-88.1992 0c-3.7109623 0 -6.7192936 -3.0083313 -6.7192936 -6.7192993l0 -26.876373c0 -3.710968 3.0083313 -6.7192993 6.7192936 -6.7192993z" fill-rule="evenodd"/><path stroke="#666666" stroke-width="12.0" stroke-linejoin="round" stroke-linecap="butt" d="m109.01036 280.0643l0 0c3.710968 0 6.7192993 3.0083313 6.7192993 6.7192993l0 26.876373l0 0c0 1.782074 -0.7079239 3.49115 -1.9680405 4.751251c-1.260109 1.2601318 -2.9691849 1.9680481 -4.751259 1.9680481l-88.1992 0c-3.7109623 0 -6.7192936 -3.0083313 -6.7192936 -6.7192993l0 -26.876373c0 -3.710968 3.0083313 -6.7192993 6.7192936 -6.7192993z" fill-rule="evenodd"/><path fill="#666666" d="m330.458 582.2702l0 0c0 3.7109985 -3.0083313 6.7192993 -6.7192993 6.7192993l-26.876373 0l0 0c-1.782074 0 -3.49115 -0.7079468 -4.751251 -1.9680176c-1.2601013 -1.2601318 -1.9680481 -2.9692383 -1.9680481 -4.7512817l0 -88.19919c0 -3.710968 3.0083313 -6.7192993 6.7192993 -6.7192993l26.876373 0c3.710968 0 6.7192993 3.0083313 6.7192993 6.7192993z" fill-rule="evenodd"/><path stroke="#666666" stroke-width="12.0" stroke-linejoin="round" stroke-linecap="butt" d="m330.458 582.2702l0 0c0 3.7109985 -3.0083313 6.7192993 -6.7192993 6.7192993l-26.876373 0l0 0c-1.782074 0 -3.49115 -0.7079468 -4.751251 -1.9680176c-1.2601013 -1.2601318 -1.9680481 -2.9692383 -1.9680481 -4.7512817l0 -88.19919c0 -3.710968 3.0083313 -6.7192993 6.7192993 -6.7192993l26.876373 0c3.710968 0 6.7192993 3.0083313 6.7192993 6.7192993z" fill-rule="evenodd"/><path fill="#666666" d="m512.43146 85.953964l0 0c2.6237793 -2.6237717 6.8777466 -2.6237717 9.501526 0l19.002441 19.002434l0 0c1.2599487 1.2599792 1.9678345 2.968872 1.9678345 4.7507477c0 1.7818832 -0.70788574 3.490776 -1.9678345 4.7507553l-62.372528 62.372513c-2.6237793 2.623764 -6.8777466 2.623764 -9.501495 0l-19.002441 -19.002441c-2.6237793 -2.623764 -2.6237793 -6.8777313 0 -9.501495z" fill-rule="evenodd"/><path stroke="#666666" stroke-width="12.0" stroke-linejoin="round" stroke-linecap="butt" d="m512.43146 85.953964l0 0c2.6237793 -2.6237717 6.8777466 -2.6237717 9.501526 0l19.002441 19.002434l0 0c1.2599487 1.2599792 1.9678345 2.968872 1.9678345 4.7507477c0 1.7818832 -0.70788574 3.490776 -1.9678345 4.7507553l-62.372528 62.372513c-2.6237793 2.623764 -6.8777466 2.623764 -9.501495 0l-19.002441 -19.002441c-2.6237793 -2.623764 -2.6237793 -6.8777313 0 -9.501495z" fill-rule="evenodd"/><path fill="#666666" d="m156.94328 433.1167l0 0c2.623764 -2.6237793 6.8777313 -2.6237793 9.501495 0l19.002441 19.002441l0 0c1.2599792 1.2599792 1.9678192 2.968872 1.9678192 4.7507324c0 1.7818909 -0.70783997 3.4907837 -1.9678192 4.750763l-62.372513 62.372528c-2.6237717 2.6237183 -6.877739 2.6237183 -9.501503 0l-19.002434 -19.002441c-2.6237717 -2.6237793 -2.6237717 -6.8777466 0 -9.501526z" fill-rule="evenodd"/><path stroke="#666666" stroke-width="12.0" stroke-linejoin="round" stroke-linecap="butt" d="m156.94328 433.1167l0 0c2.623764 -2.6237793 6.8777313 -2.6237793 9.501495 0l19.002441 19.002441l0 0c1.2599792 1.2599792 1.9678192 2.968872 1.9678192 4.7507324c0 1.7818909 -0.70783997 3.4907837 -1.9678192 4.750763l-62.372513 62.372528c-2.6237717 2.6237183 -6.877739 2.6237183 -9.501503 0l-19.002434 -19.002441c-2.6237717 -2.6237793 -2.6237717 -6.8777466 0 -9.501526z" fill-rule="evenodd"/><path fill="#666666" d="m185.44722 148.32648l0 0c2.623764 2.623764 2.623764 6.8777313 0 9.501495l-19.002441 19.002441l0 0c-1.259964 1.2599792 -2.968872 1.9678192 -4.7507477 1.9678192c-1.7818756 0 -3.4907684 -0.70783997 -4.7507477 -1.9678192l-62.372513 -62.372513c-2.6237717 -2.6237717 -2.6237717 -6.877739 0 -9.501503l19.002434 -19.002434c2.623764 -2.6237717 6.8777313 -2.6237717 9.501503 0z" fill-rule="evenodd"/><path stroke="#666666" stroke-width="12.0" stroke-linejoin="round" stroke-linecap="butt" d="m185.44722 148.32648l0 0c2.623764 2.623764 2.623764 6.8777313 0 9.501495l-19.002441 19.002441l0 0c-1.259964 1.2599792 -2.968872 1.9678192 -4.7507477 1.9678192c-1.7818756 0 -3.4907684 -0.70783997 -4.7507477 -1.9678192l-62.372513 -62.372513c-2.6237717 -2.6237717 -2.6237717 -6.877739 0 -9.501503l19.002434 -19.002434c2.623764 -2.6237717 6.8777313 -2.6237717 9.501503 0z" fill-rule="evenodd"/><path fill="#666666" d="m526.03516 485.9905l0 0c2.6237793 2.6237793 2.6237793 6.8777466 0 9.501526l-19.002441 19.00241l0 0c-1.2599792 1.2600098 -2.968872 1.9678345 -4.750763 1.9678345c-1.7818604 0 -3.4907532 -0.7078247 -4.7507324 -1.9678345l-62.372528 -62.372498c-2.6237488 -2.6237793 -2.6237488 -6.8777466 0 -9.501495l19.002441 -19.002441c2.6237793 -2.6237793 6.8777466 -2.6237793 9.501495 0z" fill-rule="evenodd"/><path stroke="#666666" stroke-width="12.0" stroke-linejoin="round" stroke-linecap="butt" d="m526.03516 485.9905l0 0c2.6237793 2.6237793 2.6237793 6.8777466 0 9.501526l-19.002441 19.00241l0 0c-1.2599792 1.2600098 -2.968872 1.9678345 -4.750763 1.9678345c-1.7818604 0 -3.4907532 -0.7078247 -4.7507324 -1.9678345l-62.372528 -62.372498c-2.6237488 -2.6237793 -2.6237488 -6.8777466 0 -9.501495l19.002441 -19.002441c2.6237793 -2.6237793 6.8777466 -2.6237793 9.501495 0z" fill-rule="evenodd"/></g></svg>